<svg width="512" height="512" viewBox="0 0 512 512" fill="none" xmlns="http://www.w3.org/2000/svg">
<g clip-path="url(#clip0_2_9)">
<rect width="512" height="512" rx="256" fill="white"/>
<path d="M-11 63.875L48.2222 126.875L107.444 84.875L165.944 126.875L225.167 116.375L284.389 100.625L343.611 142.625L402.833 116.375L462.056 53.375L520.556 79.625L579.778 53.375L639 126.875V0L579.778 0L520.556 0L462.056 0L402.833 0L343.611 0L284.389 0L225.167 0L165.944 0L107.444 0L48.2222 0L-11 0V63.875Z" fill="#4F2C83"/>
<path d="M-11 142.625L48.2222 195.125L107.444 116.375L165.944 189.875L225.167 179.375L284.389 153.125L343.611 189.875L402.833 195.125L462.056 111.125L520.556 153.125L579.778 137.375L639 200.375V125.125L579.778 51.625L520.556 77.875L462.056 51.625L402.833 114.625L343.611 140.875L284.389 98.875L225.167 114.625L165.944 125.125L107.444 83.125L48.2222 125.125L-11 62.125V142.625Z" fill="#462382"/>
<path d="M-11 525.875H48.2222H107.444H165.944H225.167H284.389H343.611H402.833H462.056H520.556H579.778H639V450.625L579.778 482.125L520.556 424.375L462.056 450.625L402.833 445.375L343.611 476.875L284.389 461.125L225.167 487.375L165.944 450.625L107.444 487.375L48.2222 424.375L-11 419.125V525.875Z" fill="#1B0382"/>
<path d="M-11 294.875L48.2222 268.625L107.444 279.125L165.944 268.625H225.167L284.389 279.125L343.611 357.875L402.833 263.375L462.056 221.375L520.556 258.125L579.778 237.125L639 300.125V198.625L579.778 135.625L520.556 151.375L462.056 109.375L402.833 193.375L343.611 188.125L284.389 151.375L225.167 177.625L165.944 188.125L107.444 114.625L48.2222 193.375L-11 140.875V294.875Z" fill="#3B1982"/>
<path d="M-11 420.875L48.2222 426.125L107.444 489.125L165.944 452.375L225.167 489.125L284.389 462.875L343.611 478.625L402.833 447.125L462.056 452.375L520.556 426.125L579.778 483.875L639 452.375V298.375L579.778 235.375L520.556 256.375L462.056 219.625L402.833 261.625L343.611 356.125L284.389 277.375L225.167 266.875H165.944L107.444 277.375L48.2222 266.875L-11 293.125V420.875Z" fill="#2E0F82"/>
<path d="M415.771 394.185C408.776 401.553 399.291 405.692 389.4 405.692C379.509 405.692 370.024 401.553 363.029 394.185L221.55 245.12V189.55H274.292L415.771 338.615C422.764 345.985 426.692 355.979 426.692 366.4C426.692 376.821 422.764 386.815 415.771 394.185Z" fill="#A82525"/>
<path d="M221.202 188.991L274.973 188.328L220.379 242.76L221.202 188.991Z" fill="#267DAD"/>
<path fill-rule="evenodd" clip-rule="evenodd" d="M128.3 327.1C128.3 337.523 132.23 347.519 139.225 354.889C146.22 362.259 155.707 366.4 165.6 366.4H240.2C245.146 366.4 249.89 364.33 253.388 360.645C256.885 356.96 258.85 351.962 258.85 346.75C258.85 341.539 256.885 336.54 253.388 332.855C249.89 329.17 245.146 327.1 240.2 327.1H165.6V130.6H352.1V209.2C352.1 214.412 354.065 219.41 357.562 223.095C361.06 226.78 365.804 228.85 370.75 228.85C375.696 228.85 380.44 226.78 383.938 223.095C387.435 219.41 389.4 214.412 389.4 209.2V130.6C389.4 120.177 385.47 110.181 378.475 102.811C371.48 95.4406 361.993 91.3 352.1 91.3H165.6C155.707 91.3 146.22 95.4406 139.225 102.811C132.23 110.181 128.3 120.177 128.3 130.6V327.1Z" fill="#267DAD"/>
</g>
<defs>
<clipPath id="clip0_2_9">
<rect width="512" height="512" rx="256" fill="white"/>
</clipPath>
</defs>
</svg>
